<svg width="15" height="26" viewBox="0 0 15 26" fill="none" xmlns="http://www.w3.org/2000/svg">
<path d="M13.2678 5.64927L13.2139 18.6458C13.2073 20.238 12.5684 21.7623 11.4379 22.8834C10.3074 24.0046 8.77782 24.6307 7.18565 24.6241C5.59348 24.6175 4.06915 23.9787 2.94799 22.8482C1.82683 21.7177 1.20069 20.1881 1.2073 18.5959L1.26128 5.5994C1.26569 4.53796 1.69157 3.52173 2.44525 2.77429C3.19892 2.02686 4.21864 1.60943 5.28009 1.61383C6.34154 1.61824 7.35776 2.04413 8.1052 2.7978C8.85264 3.55148 9.27007 4.5712 9.26566 5.63265L9.20458 18.6362C9.20237 19.1669 8.98943 19.675 8.61259 20.0488C8.23576 20.4225 7.72589 20.6312 7.19517 20.629C6.66445 20.6268 6.15634 20.4138 5.78262 20.037C5.4089 19.6602 5.20018 19.1503 5.20239 18.6196L5.2593 6.62011" stroke="#454545" stroke-width="2" stroke-linecap="round" stroke-linejoin="round"/>
</svg>
