<svg width="101" height="60" viewBox="0 0 101 60" fill="none" xmlns="http://www.w3.org/2000/svg">
<g clip-path="url(#clip0_12813_337068)">
<path fill-rule="evenodd" clip-rule="evenodd" d="M34.619 17.2482C34.4265 16.6894 34.3293 16.0913 34.3293 15.4558C34.3293 14.8202 34.4265 14.2511 34.619 13.6923C34.8218 13.1334 35.1063 12.641 35.4726 12.2184C35.839 11.7942 36.2769 11.4619 36.788 11.2217C37.3077 10.9712 37.8819 10.8451 38.5089 10.8451C39.1359 10.8451 39.7527 10.9712 40.3014 11.2217C40.8603 11.4619 41.3425 11.7959 41.7463 12.2184C42.1603 12.6427 42.484 13.1334 42.7141 13.6923C42.9458 14.2511 43.0617 14.839 43.0617 15.4558C43.0617 16.0726 42.9458 16.6894 42.7141 17.2482C42.4823 17.7969 42.1603 18.274 41.7463 18.6795C41.3407 19.085 40.8603 19.407 40.3014 19.6473C39.7527 19.879 39.1547 19.9949 38.5089 19.9949C37.8632 19.9949 37.3094 19.879 36.788 19.6473C36.2769 19.407 35.839 19.0833 35.4726 18.6795C35.1063 18.274 34.8218 17.7969 34.619 17.2482ZM48.5686 24.6209H43.7091L43.2491 22.8574C42.9884 23.1181 42.6902 23.3737 42.3528 23.6241C42.0257 23.8746 41.6594 24.1012 41.2539 24.304C40.8586 24.4965 40.4292 24.6516 39.9674 24.7674C39.5142 24.8935 39.0422 24.9548 38.5498 24.9548C37.6723 24.9548 36.8289 24.8441 36.0196 24.6226C35.2205 24.4011 34.4673 24.0876 33.7637 23.6821C33.0702 23.268 32.438 22.7756 31.8689 22.2082C31.2999 21.6306 30.8091 20.9882 30.3951 20.2862C29.9896 19.5825 29.6778 18.826 29.4546 18.0167C29.2331 17.1971 29.1223 16.3452 29.1223 15.4575C29.1223 14.1182 29.3677 12.8744 29.8601 11.7277C30.3508 10.5708 31.0221 9.56892 31.8689 8.72039C32.7175 7.86334 33.7142 7.19202 34.8609 6.71153C36.0076 6.22082 37.2361 5.97375 38.5481 5.97375C39.1462 5.97375 39.6999 6.04191 40.2111 6.17651C40.7308 6.31112 41.2044 6.49514 41.6287 6.72516C42.0632 6.95689 42.4534 7.23632 42.7993 7.56346C43.1468 7.88209 43.4501 8.22797 43.7108 8.60453V6.17651H48.5686V24.6243V24.6209Z" fill="#100CA1"/>
<path fill-rule="evenodd" clip-rule="evenodd" d="M54.8491 17.2465C54.6566 16.6877 54.5594 16.0896 54.5594 15.4541C54.5594 14.8185 54.6566 14.2494 54.8491 13.6906C55.0519 13.1317 55.3364 12.6393 55.7027 12.2167C56.0691 11.7925 56.507 11.4602 57.0181 11.22C57.5378 10.9695 58.112 10.8434 58.739 10.8434C59.3661 10.8434 59.9829 10.9695 60.5315 11.22C61.0904 11.4602 61.5726 11.7942 61.9764 12.2167C62.3904 12.641 62.7142 13.1317 62.9442 13.6906C63.1759 14.2494 63.2918 14.8373 63.2918 15.4541V15.6568C63.2628 16.2634 63.1231 16.8325 62.8726 17.3624C62.6324 17.8923 62.3086 18.3558 61.9048 18.7511C61.4993 19.1361 61.0222 19.4394 60.4736 19.6626C59.9334 19.8841 59.3558 19.9949 58.739 19.9949C58.1222 19.9949 57.5395 19.879 57.0181 19.6473C56.507 19.407 56.0691 19.0833 55.7027 18.6795C55.3364 18.274 55.0519 17.7969 54.8491 17.2482V17.2465ZM63.0174 22.8131C62.7568 23.0738 62.4586 23.3328 62.1212 23.5934C61.7941 23.8439 61.4328 24.0705 61.0376 24.2733C60.6525 24.4761 60.2333 24.6396 59.7801 24.764C59.3371 24.8901 58.8651 24.9514 58.3625 24.9514C57.0522 24.9514 55.8425 24.7061 54.7332 24.2137C53.6342 23.7229 52.6852 23.0516 51.8861 22.2048C51.0955 21.3478 50.4736 20.3391 50.0203 19.1838C49.5773 18.0269 49.3558 16.7848 49.3558 15.4541C49.3558 14.1234 49.5773 12.871 50.0203 11.7243C50.4736 10.5674 51.0955 9.56551 51.8861 8.71698C52.6852 7.85993 53.636 7.18861 54.7332 6.70812C55.8425 6.21741 57.0505 5.97035 58.3625 5.97035C58.8924 5.97035 59.3746 6.01805 59.8074 6.11517C60.2504 6.20207 60.6508 6.33157 61.0069 6.50536C61.3732 6.67916 61.7055 6.88532 62.0036 7.12727C62.312 7.36752 62.6017 7.63332 62.8709 7.92298V0.7957H68.4221V24.6209H63.7518L63.0157 22.8131H63.0174Z" fill="#100CA1"/>
<path d="M72.3342 6.52071C72.3342 5.62447 72.5267 4.78106 72.9118 3.99046C73.2969 3.19987 73.8131 2.51151 74.4589 1.92367C75.1047 1.32561 75.8476 0.858754 76.6859 0.521389C77.5242 0.1738 78.4017 0.00170898 79.3166 0.00170898H80.632V5.00597L79.4904 5.05879C79.2877 5.05879 78.9213 5.15761 78.739 5.23429C78.5567 5.30244 78.3914 5.39786 78.2483 5.52394C78.1035 5.65003 77.9876 5.79827 77.9007 5.97206C77.8138 6.13563 77.7712 6.31965 77.7712 6.52071V8.18368H80.7922V13.1419H77.7712V24.6209H72.3359V13.1419H69.7188C69.7188 12.9596 69.7188 12.8165 69.7188 12.8165V8.18368H72.3359V6.52071H72.3342Z" fill="#100CA1"/>
<path d="M27.9348 10.915C27.6656 9.93185 27.255 9.0748 26.7063 8.34214C26.1662 7.60948 25.4863 7.03187 24.6685 6.6076C23.8489 6.18334 22.8896 5.97206 21.7924 5.97206C21.0989 5.97206 20.4429 6.05896 19.8261 6.23275C19.2093 6.40655 18.6504 6.62805 18.1495 6.89726C17.6485 7.16647 17.2141 7.46635 16.8477 7.7935C16.4916 8.12064 16.2207 8.43415 16.0384 8.73403C15.7402 8.29102 15.4216 7.90084 15.0842 7.56347C14.7469 7.21588 14.3703 6.92793 13.9563 6.6962C13.5507 6.45596 13.0975 6.27705 12.5966 6.16119C12.1059 6.0351 11.5555 5.97377 10.9489 5.97377C10.1771 5.97377 9.50236 6.06066 8.92474 6.23446C8.35565 6.39803 7.86494 6.61101 7.4509 6.87C7.03686 7.13069 6.69438 7.41864 6.42517 7.73727C6.15596 8.05589 5.94809 8.36429 5.80326 8.66247V8.64543C5.10297 10.1823 3.34458 10.9797 1.70205 10.4413C1.45669 10.3612 1.23008 10.2539 1.0188 10.1261V24.6226H6.57V14.0109C6.59897 13.5764 6.69949 13.1828 6.87329 12.825C7.05731 12.4689 7.27881 12.1656 7.5378 11.9134C7.80701 11.6528 8.10689 11.4551 8.43403 11.3205C8.7714 11.1757 9.11387 11.1041 9.45976 11.1041C9.86528 11.1041 10.2265 11.1808 10.5434 11.3358C10.8706 11.4807 11.1466 11.6868 11.3681 11.9577C11.5998 12.2184 11.7736 12.5268 11.8878 12.8829C12.0139 13.2391 12.0752 13.6258 12.0752 14.0399V24.6226H17.4969V14.0399C17.4969 13.6054 17.5685 13.2118 17.7133 12.854C17.8666 12.4877 18.0694 12.1793 18.3199 11.9288C18.5703 11.6681 18.86 11.4653 19.1871 11.3222C19.5143 11.1774 19.8619 11.1058 20.2282 11.1058C20.6337 11.1058 21.0001 11.1825 21.3272 11.3375C21.6646 11.4824 21.9491 11.6885 22.1808 11.9595C22.4126 12.2201 22.5898 12.5285 22.7158 12.8847C22.8505 13.2408 22.9186 13.6275 22.9186 14.0416V24.6243H28.3403V14.0416C28.3403 12.9324 28.2057 11.893 27.9348 10.9184V10.915Z" fill="#100CA1"/>
<path d="M95.0671 22.0975C95.0757 22.0668 95.0825 22.0344 95.0927 22.0037C95.6703 20.2402 97.5684 19.2793 99.3319 19.8569C99.5142 19.9165 99.6846 19.9932 99.8482 20.0784V6.26001H94.297V16.7269C94.297 17.267 94.1811 17.7287 93.9494 18.1155C93.7177 18.5006 93.4297 18.8192 93.0821 19.0697C92.7345 19.3099 92.3597 19.4888 91.9542 19.6047C91.5487 19.7206 91.1738 19.7785 90.8262 19.7785C90.4207 19.7785 90.0356 19.6967 89.6693 19.5331C89.3132 19.3696 88.9997 19.1481 88.7305 18.8686C88.4612 18.579 88.2432 18.2518 88.0796 17.8855C87.9245 17.5089 87.8479 17.1136 87.8479 16.6996V6.26171H82.4261V16.8444C82.4261 17.9537 82.5761 18.9981 82.8743 19.9813C83.1724 20.9542 83.612 21.8078 84.1897 22.5405C84.7775 23.2731 85.4965 23.8507 86.3433 24.275C87.1902 24.6993 88.1648 24.9105 89.2638 24.9105C90.0254 24.9105 90.7291 24.8185 91.3749 24.6362C92.0206 24.4539 92.5897 24.2222 93.0804 23.9427C93.5814 23.6633 94.0005 23.36 94.3379 23.0312C94.6752 22.6938 94.9155 22.3752 95.0603 22.077L95.0637 22.0975H95.0671Z" fill="#100CA1"/>
<path d="M98.2875 25.7625C99.7856 25.7625 101 24.548 101 23.0499C101 21.5518 99.7856 20.3374 98.2875 20.3374C96.7894 20.3374 95.575 21.5518 95.575 23.0499C95.575 24.548 96.7894 25.7625 98.2875 25.7625Z" fill="#100CA1"/>
<path d="M2.74649 9.9574C4.2446 9.9574 5.45905 8.74295 5.45905 7.24484C5.45905 5.74674 4.2446 4.53229 2.74649 4.53229C1.24839 4.53229 0.0339355 5.74674 0.0339355 7.24484C0.0339355 8.74295 1.24839 9.9574 2.74649 9.9574Z" fill="#100CA1"/>
<path d="M59.0065 42.3445C59.0065 41.0291 58.7884 39.8364 58.3403 38.7766C58.3403 38.7766 58.3403 38.7766 58.3403 38.7749C58.3403 38.7749 58.3403 38.7749 58.3403 38.7732C57.9058 37.727 57.2925 36.8325 56.4984 36.1015C55.7027 35.3621 54.7486 34.81 53.6445 34.4403C53.6445 34.4403 53.6428 34.4403 53.6411 34.4403C53.6411 34.4403 53.6394 34.4403 53.6377 34.4403C52.5438 34.062 51.3511 33.878 50.0646 33.878C48.7782 33.878 47.5753 34.0688 46.4695 34.4573C45.3756 34.8356 44.4248 35.3927 43.6223 36.1288C42.8164 36.8598 42.1928 37.7543 41.7481 38.8022V38.8073C41.3102 39.8654 41.0972 41.0479 41.0972 42.3462C41.0972 43.6446 41.3306 44.9276 41.8009 46.03H41.0972C41.087 46.0317 41.0767 46.03 41.0665 46.03C40.3083 46.03 39.7835 45.8034 39.4138 45.4047H39.4121L39.4104 45.4013C39.0474 45.0162 38.8174 44.4011 38.8174 43.4554V42.3462C38.8174 41.0308 38.5993 39.8381 38.1512 38.7783C38.1512 38.7783 38.1512 38.7783 38.1512 38.7766C38.1512 38.7766 38.1512 38.7766 38.1512 38.7749C37.7167 37.727 37.1033 36.8325 36.3076 36.1015C35.5034 35.3621 34.5492 34.8049 33.4536 34.4249H33.4519H33.4502C32.3563 34.0569 31.1636 33.8763 29.8755 33.8763C28.5874 33.8763 27.3759 34.062 26.2804 34.442C25.1865 34.8202 24.2323 35.3774 23.4298 36.1152C22.6239 36.8461 22.0002 37.7407 21.5555 38.7885V38.792L21.5521 38.7954C21.1142 39.862 20.9012 41.0496 20.9012 42.3462C20.9012 43.6429 21.1142 44.8731 21.5521 45.9414V45.9465C21.9968 47.0046 22.6222 47.9025 23.4298 48.625C24.2323 49.3525 25.1848 49.9029 26.2769 50.2811C27.3725 50.6611 28.5721 50.8468 29.8721 50.8468C31.0921 50.8468 32.2252 50.6781 33.2713 50.3391C33.2441 50.5043 33.2117 50.6696 33.1725 50.8298C33.1146 51.07 33.0498 51.2881 32.9783 51.4636C32.9033 51.6476 32.8368 51.7482 32.7994 51.7891V51.7908C32.4313 52.1878 31.9031 52.4161 31.1313 52.4161H30.5417V57.313L31.1364 57.3079C32.3359 57.2977 33.4127 57.1171 34.3601 56.7507C35.3262 56.3793 36.1492 55.8579 36.8154 55.1798C37.4782 54.505 37.9757 53.7076 38.3097 52.7943C38.4511 52.4042 38.5533 51.8299 38.6283 51.3035C38.6641 51.0547 38.693 50.8059 38.7186 50.5725C39.424 50.7497 40.1924 50.84 41.0188 50.8485H41.0222H41.0256H41.0699C41.0801 50.8485 41.0904 50.8485 41.1006 50.8485H41.6901H50.0766C51.3647 50.8485 52.5608 50.6628 53.6547 50.2845C54.7571 49.9063 55.7096 49.361 56.5053 48.6403V48.6369C57.3027 47.9042 57.9161 47.0046 58.3506 45.9465C58.3506 45.9465 58.3506 45.9465 58.3506 45.9448C58.3506 45.9448 58.3506 45.9448 58.3506 45.9431C58.7987 44.8748 59.0168 43.6718 59.0168 42.3479L59.0065 42.3445ZM33.0941 43.8661V43.8712L33.0907 43.8763C32.9288 44.3278 32.6988 44.7044 32.4041 45.0162L32.4006 45.0196L32.3972 45.023C32.1161 45.328 31.7617 45.5716 31.3238 45.7488C30.8893 45.9243 30.3986 46.0164 29.8431 46.0164C29.2877 46.0164 28.8362 45.9243 28.4119 45.7506C27.9808 45.5733 27.6145 45.3263 27.3078 45.0111C27.0028 44.6976 26.7574 44.3176 26.5785 43.8644C26.4098 43.418 26.323 42.9136 26.323 42.3462C26.323 41.7788 26.4116 41.2966 26.5785 40.8604C26.7608 40.4021 27.0011 40.0204 27.2993 39.7052C27.6043 39.3832 27.9689 39.1344 28.3949 38.9589C28.8293 38.7834 29.3149 38.6914 29.8585 38.6914C30.402 38.6914 30.8876 38.7834 31.3238 38.9589H31.3289L31.334 38.9623C31.7719 39.131 32.1246 39.3645 32.4041 39.6609L32.4075 39.6643L32.4109 39.6677C32.7022 39.9676 32.9306 40.3357 33.0924 40.7872V40.7923L33.0958 40.7974C33.2645 41.2438 33.3531 41.7584 33.3531 42.3496C33.3531 42.9409 33.2645 43.4231 33.0958 43.8712L33.0941 43.8661ZM53.8626 40.5844L53.3071 40.7838V40.7889L53.3105 40.794C53.4792 41.2404 53.5678 41.755 53.5678 42.3462C53.5678 42.9375 53.4792 43.4265 53.3088 43.8865V43.8899L53.3071 43.8933C53.1452 44.3432 52.9169 44.7197 52.6239 45.0298C52.3291 45.3314 51.9645 45.5785 51.5214 45.7659C51.1006 45.9397 50.6167 46.0317 50.0629 46.0317C49.5092 46.0317 49.0594 45.9414 48.6351 45.7676C48.2006 45.5785 47.8326 45.3314 47.5242 45.0247C47.2209 44.7112 46.9772 44.3329 46.7983 43.8814C46.6296 43.4231 46.541 42.9136 46.541 42.3479C46.541 41.7822 46.6296 41.2983 46.7966 40.8622C46.9789 40.4038 47.2192 40.0221 47.5174 39.7069L47.5208 39.7035L47.5242 39.7001C47.8172 39.3832 48.1768 39.1361 48.6129 38.9589C49.0491 38.7834 49.5313 38.6914 50.0629 38.6914C50.5945 38.6914 51.1023 38.7834 51.5249 38.9572L51.5317 38.9606H51.5385C51.9781 39.1327 52.3376 39.3679 52.629 39.6677C52.9203 39.9676 53.1486 40.3357 53.3105 40.7872L53.866 40.5878L53.8626 40.5844Z" fill="#100CA1"/>
<path d="M48.238 32.641L48.2414 32.6444L48.2448 32.6478C48.7509 33.0499 49.3642 33.2339 50.0458 33.2339C50.7273 33.2339 51.3203 33.0465 51.8366 32.6563H51.84L51.8434 32.6512C52.4312 32.1946 52.7362 31.5693 52.7362 30.8247C52.7362 30.0801 52.4534 29.4445 51.8621 29.0049C51.3322 28.6096 50.7188 28.4154 50.0458 28.4154C49.3728 28.4154 48.7611 28.6011 48.2499 28.9964C47.6655 29.4497 47.3707 30.0784 47.3707 30.823C47.3707 31.5676 47.6689 32.1758 48.238 32.6393V32.641Z" fill="#100CA1"/>
<path d="M19.1223 34.8151C17.7814 34.1813 16.2786 33.8712 14.6258 33.8712C13.3292 33.8712 12.1314 34.0569 11.0358 34.4352C11.0358 34.4352 11.0358 34.4352 11.0341 34.4352C11.0324 34.4352 11.0341 34.4352 11.0324 34.4352C9.93678 34.8049 8.98261 35.357 8.17838 36.0964C7.38268 36.8274 6.76417 37.7219 6.31946 38.7698V38.7749C5.87987 39.8347 5.66859 41.0274 5.66859 42.3428C5.66859 43.7672 5.93098 45.0622 6.45577 46.2174C5.92417 46.3179 5.42153 46.4508 4.95637 46.628H4.95467H4.95296C3.88975 47.0387 2.99351 47.6095 2.27619 48.3472C1.56738 49.068 1.03066 49.9182 0.667736 50.8877V50.8911L0.666032 50.8945C0.315035 51.8623 0.142944 52.8966 0.142944 53.9939C0.142944 54.643 0.20258 55.2718 0.316739 55.8783C1.02044 54.3466 2.77372 53.5509 4.41454 54.0893C4.86947 54.2375 5.26988 54.4761 5.60384 54.7759C5.55954 54.5067 5.53739 54.2324 5.53739 53.9496C5.53739 53.2203 5.69244 52.6427 5.96847 52.1912C6.24279 51.7413 6.66365 51.375 7.2617 51.1007C7.63144 50.9354 8.10001 50.8417 8.68954 50.8417H19.4699V46.0232H14.636C14.084 46.0232 13.595 45.9312 13.1622 45.7574C12.7294 45.5699 12.3699 45.3229 12.0734 45.0213C11.7787 44.7095 11.5452 44.3329 11.3748 43.8814C11.213 43.4197 11.1295 42.9085 11.1295 42.3377C11.1295 41.7669 11.2147 41.2285 11.3748 40.7821C11.5452 40.3305 11.7804 39.9591 12.0717 39.6592C12.3648 39.3576 12.7209 39.1225 13.1503 38.9538H13.1537L13.1571 38.9521C13.4297 38.8414 13.7279 38.7681 14.0465 38.7272V41.4807H19.4716V34.9702L19.1343 34.81L19.1223 34.8151Z" fill="#100CA1"/>
<path d="M94.6821 45.5529C93.8728 45.2871 93.2355 44.7436 92.8368 44.0637C92.6818 44.4318 92.4807 44.7487 92.2285 45.0145C91.9355 45.3229 91.5742 45.5682 91.1346 45.7454H91.1329H91.1312C90.7087 45.9192 90.2248 46.0112 89.6693 46.0112C89.1139 46.0112 88.6623 45.9192 88.2381 45.7454C87.807 45.5682 87.4407 45.3212 87.134 45.006C86.829 44.6925 86.5836 44.3125 86.4047 43.8593C86.236 43.4128 86.1491 42.9085 86.1491 42.3411C86.1491 41.7737 86.2377 41.2915 86.4047 40.857C86.587 40.4089 86.829 40.0239 87.1323 39.695C87.4253 39.3781 87.7848 39.131 88.221 38.9538C88.6572 38.7783 89.1394 38.6863 89.671 38.6863C90.2026 38.6863 90.7104 38.7783 91.1329 38.9521L91.1398 38.9555H91.1466C91.5845 39.1259 91.9372 39.3611 92.2166 39.6558L92.22 39.6592L92.2234 39.6626C92.4773 39.925 92.6869 40.2488 92.8504 40.6338C93.6376 39.3133 95.258 38.6642 96.7813 39.1617C97.4713 39.3883 98.037 39.8177 98.4374 40.3629C98.3301 39.8075 98.175 39.2776 97.9706 38.7749V38.7715L97.9672 38.7681C97.5225 37.7219 96.9056 36.8274 96.1099 36.0964C95.3142 35.357 94.3601 34.8049 93.256 34.4352C93.256 34.4352 93.2543 34.4352 93.2526 34.4352C93.2526 34.4352 93.2509 34.4352 93.2492 34.4352C92.1553 34.0569 90.9626 33.8729 89.6761 33.8729C88.3897 33.8729 87.1919 34.0586 86.0963 34.4386H86.0946H86.0929C85.0007 34.8271 84.0466 35.3825 83.2355 36.1084L83.2321 36.1118L83.2287 36.1152C82.4245 36.8547 81.8043 37.7543 81.3698 38.8039C81.3698 38.8039 81.3698 38.8039 81.3698 38.8056C81.3698 38.8056 81.3698 38.8056 81.3698 38.8073C80.9217 39.8654 80.7036 41.0496 80.7036 42.3462V43.4554C80.7036 44.4028 80.4735 45.0179 80.1106 45.4013H80.1089L80.1072 45.4047C79.7375 45.8034 79.2127 46.03 78.4545 46.03H78.1154C78.0285 46.0215 77.9399 46.0147 77.8479 46.0147C77.088 46.0147 76.5615 45.7914 76.1934 45.403C75.8271 45.006 75.5988 44.3841 75.5988 43.4401V42.3599C75.5988 41.036 75.3824 39.833 74.9343 38.7647C74.9343 38.7647 74.9343 38.763 74.9343 38.7613C74.9343 38.7613 74.9343 38.7613 74.9343 38.7596C74.4998 37.7015 73.8813 36.807 73.0737 36.0845C73.0737 36.0845 73.0719 36.0828 73.0702 36.0811C73.0702 36.0811 73.0685 36.0794 73.0668 36.0777C72.2728 35.3501 71.3255 34.7998 70.235 34.4215H70.2333H70.2316C69.1377 34.0535 67.9382 33.8729 66.6416 33.8729H63.256V38.6914H66.6552C67.1987 38.6914 67.6843 38.7834 68.1205 38.9589C68.5584 39.1361 68.9128 39.3798 69.1939 39.6848L69.1974 39.6882L69.2008 39.6916C69.4972 40.0034 69.7324 40.3817 69.9028 40.8349C70.0629 41.2847 70.1481 41.7908 70.1481 42.3616C70.1481 42.9324 70.0629 43.4708 69.9028 43.9172C69.7324 44.3687 69.4972 44.7402 69.2059 45.04L69.2008 45.0452L69.1957 45.0503C68.9162 45.3536 68.5652 45.5904 68.1307 45.7574C67.6928 45.9261 67.2038 46.0147 66.6569 46.0147H60.4463V50.8468H66.6416C67.9399 50.8468 69.1394 50.6611 70.235 50.2828C71.0972 49.9864 71.8673 49.5774 72.5455 49.0595C73.1384 49.5723 73.8302 49.983 74.6191 50.2897C75.5562 50.656 76.6211 50.8366 77.8002 50.8468H77.8036H77.8053H77.8496C77.8496 50.8468 77.8598 50.8468 77.8666 50.8468V50.8519L78.4613 50.8468C79.6608 50.8366 80.7394 50.656 81.685 50.2897C82.4705 49.983 83.164 49.5757 83.762 49.0646C84.4487 49.5791 85.229 49.9847 86.0997 50.2811C87.1936 50.6594 88.388 50.8451 89.6761 50.8451C90.9643 50.8451 92.1587 50.6594 93.2543 50.2811C94.3567 49.9029 95.3091 49.3576 96.1048 48.6369V48.6335C96.9022 47.9008 97.5207 47.0012 97.9655 45.9431V45.938C98.1699 45.4387 98.3233 44.9105 98.4306 44.3551C97.5923 45.4882 96.0963 46.0129 94.6838 45.5512L94.6821 45.5529Z" fill="#100CA1"/>
<path d="M3.3599 60C4.858 60 6.07245 58.7856 6.07245 57.2874C6.07245 55.7893 4.858 54.5749 3.3599 54.5749C1.86179 54.5749 0.647339 55.7893 0.647339 57.2874C0.647339 58.7856 1.86179 60 3.3599 60Z" fill="#100CA1"/>
<path d="M95.7282 45.0724C97.2263 45.0724 98.4407 43.858 98.4407 42.3598C98.4407 40.8617 97.2263 39.6473 95.7282 39.6473C94.2301 39.6473 93.0156 40.8617 93.0156 42.3598C93.0156 43.858 94.2301 45.0724 95.7282 45.0724Z" fill="#100CA1"/>
</g>
<defs>
<clipPath id="clip0_12813_337068">
<rect width="100.966" height="60" fill="white" transform="translate(0.0339355)"/>
</clipPath>
</defs>
</svg>
